/* XPM */
static char * C:\Users\administrator_STARWING\Floripacoin\share\pixmaps\floripacoin16_xpm[] = {
"16 16 192 2",
"  	c None",
". 	c #EDDA88",
"+ 	c #E9D173",
"@ 	c #EACD66",
"# 	c #EDCA5E",
"$ 	c #EAD67C",
"% 	c #ECD257",
"& 	c #E9CE48",
"* 	c #FBDA4A",
"= 	c #F7D142",
"- 	c #F1C639",
"; 	c #F0BB31",
"> 	c #ECBB41",
", 	c #F7E088",
"' 	c #E9CB59",
") 	c #F4D245",
"! 	c #FED341",
"~ 	c #FCCB37",
"{ 	c #FCC430",
"] 	c #FAC12E",
"^ 	c #EDB92E",
"/ 	c #ECB52E",
"( 	c #F4B82D",
"_ 	c #E7B44C",
": 	c #F1DCA1",
"< 	c #EAC149",
"[ 	c #FFCC3A",
"} 	c #F7C230",
"| 	c #FCD25A",
"1 	c #FCE88A",
"2 	c #FDED8D",
"3 	c #FDE471",
"4 	c #FBCF4A",
"5 	c #F4B630",
"6 	c #E6A327",
"7 	c #E3A126",
"8 	c #DFA742",
"9 	c #ECC14E",
"0 	c #EDB82F",
"a 	c #F8BB2C",
"b 	c #FAD972",
"c 	c #FDEC85",
"d 	c #FDDF64",
"e 	c #FDD34A",
"f 	c #FCCA3A",
"g 	c #FBC333",
"h 	c #F8BE2F",
"i 	c #EBA928",
"j 	c #DF9422",
"k 	c #DF9221",
"l 	c #E2A835",
"m 	c #E8AC29",
"n 	c #EEAF2B",
"o 	c #F4C14D",
"p 	c #FDE063",
"q 	c #FDD247",
"r 	c #FDC939",
"s 	c #EAB32C",
"t 	c #E9AF2A",
"u 	c #EEAC28",
"v 	c #E9A626",
"w 	c #DB9021",
"x 	c #CC851E",
"y 	c #D4871B",
"z 	c #EBBF4A",
"A 	c #E4A025",
"B 	c #E39E22",
"C 	c #F8CC51",
"D 	c #FCC838",
"E 	c #FAC232",
"F 	c #F6BB2E",
"G 	c #E9AF29",
"H 	c #CE9924",
"I 	c #D79922",
"J 	c #E19B23",
"K 	c #DF9622",
"L 	c #D88D20",
"M 	c #D38A1E",
"N 	c #DA901F",
"O 	c #D29432",
"P 	c #E4BD66",
"Q 	c #DB921F",
"R 	c #DA8E1F",
"S 	c #FACA47",
"T 	c #F6BA2D",
"U 	c #F1B22A",
"V 	c #EDAA27",
"W 	c #DB9D24",
"X 	c #CC8F20",
"Y 	c #D18D20",
"Z 	c #D48B20",
"` 	c #D98C20",
" .	c #D4871F",
"..	c #E49C1F",
"+.	c #EAA521",
"@.	c #D4942F",
"#.	c #E3C283",
"$.	c #D98B1C",
"%.	c #D6871D",
"&.	c #F3BB3D",
"*.	c #CE9823",
"=.	c #DD9B23",
"-.	c #CF9020",
";.	c #C9891F",
">.	c #CA851F",
",.	c #D0871F",
"'.	c #D0861E",
").	c #D38A20",
"!.	c #DF9623",
"~.	c #ECAB23",
"{.	c #F2B327",
"].	c #E2AC38",
"^.	c #E9CC7E",
"/.	c #D18319",
"(.	c #D4891D",
"_.	c #E2A333",
":.	c #BD851E",
"<.	c #C4841E",
"[.	c #C5831E",
"}.	c #C17D1D",
"|.	c #D4891F",
"1.	c #D18A20",
"2.	c #D89522",
"3.	c #E1A227",
"4.	c #E2A929",
"5.	c #FBC231",
"6.	c #F3C237",
"7.	c #E6B642",
"8.	c #DB941E",
"9.	c #DE971F",
"0.	c #E6A32E",
"a.	c #D78A1F",
"b.	c #D6891F",
"c.	c #D88B20",
"d.	c #D99021",
"e.	c #E69E25",
"f.	c #F1AD2A",
"g.	c #F9BC30",
"h.	c #FCC837",
"i.	c #EEBD3D",
"j.	c #EBC751",
"k.	c #F6C953",
"l.	c #E2A52D",
"m.	c #EBAB24",
"n.	c #F2B124",
"o.	c #E29F2B",
"p.	c #DE9221",
"q.	c #E7A025",
"r.	c #F1AF2A",
"s.	c #F9BE31",
"t.	c #FCC938",
"u.	c #FFD643",
"v.	c #E5C14B",
"w.	c #FDDF7F",
"x.	c #FBE392",
"y.	c #DEAA4D",
"z.	c #E4A326",
"A.	c #F4C032",
"B.	c #F5C439",
"C.	c #F0BB3C",
"D.	c #EEB632",
"E.	c #FAC734",
"F.	c #FAD13E",
"G.	c #ECC94A",
"H.	c #E9CE73",
"I.	c #FEEAA7",
"J.	c #ECDEAC",
"K.	c #ECCB86",
"L.	c #CF9841",
"M.	c #EBB843",
"N.	c #FEDD6F",
"O.	c #DEC872",
"P.	c #FFE690",
"Q.	c #F4DD98",
"R.	c #F3DEA5",
"S.	c #FFF3BD",
"T.	c #ECE2B8",
"U.	c #F8F2CA",
"V.	c #EED697",
"W.	c #CC9B44",
"X.	c #ECC257",
"Y.	c #F7DC93",
"Z.	c #FEF4C6",
"`.	c #FFF7CC",
" +	c #FAF7CF",
".+	c #FEFDD6",
"++	c #F5E8B0",
"@+	c #E1C16E",
"#+	c #D29738",
"$+	c #D5A555",
"%+	c #D7AB5A",
"&+	c #D3A547",
"            . + @ #             ",
"        $ % & * = - ; >         ",
"    , ' ) ! ~ { ] ^ / ( _ :     ",
"    < [ } | 1 2 3 4 5 6 7 8     ",
"  9 0 a b c d e f g h i j k l   ",
"  m n o p q r g s t u v w x y   ",
"z A B C D E F G H I J K L M N O ",
"P Q R S T U V W X Y Z `  ...+.@.",
"#.$.%.&.*.=.-.;.>.,.'.).!.~.{.].",
"^./.(._.:.<.[.}.|.1.2.3.4.5.6.7.",
"  8.9.0.a.b.c.d.e.f.g.h.i.j.k.  ",
"  l.m.n.o.p.q.r.s.t.u.v.w.x.y.  ",
"    z.A.B.C.D.E.F.G.H.I.J.K.    ",
"    L.M.N.O.P.Q.R.S.T.U.V.W.    ",
"        X.Y.Z.`. +.+++@+        ",
"            #+$+%+&+            "};
