/* XPM */
static char * C:\Users\administrator_STARWING\Floripacoin\share\pixmaps\floripacoin32_xpm[] = {
"32 32 716 2",
"  	c None",
". 	c #FBE188",
"+ 	c #FCE48F",
"@ 	c #FCE289",
"# 	c #FADD7B",
"$ 	c #FCE594",
"% 	c #FFEF9E",
"& 	c #F3E99D",
"* 	c #DDCB73",
"= 	c #DEC664",
"- 	c #DFC55C",
"; 	c #E0C255",
"> 	c #DFBE51",
", 	c #E0BC4C",
"' 	c #F4D05C",
") 	c #FED75D",
"! 	c #F9D362",
"~ 	c #FCE693",
"{ 	c #FAF0A6",
"] 	c #DAC56B",
"^ 	c #DCC14F",
"/ 	c #E9CC49",
"( 	c #FFE757",
"_ 	c #FFE254",
": 	c #FFE151",
"< 	c #F9D84C",
"[ 	c #FFDB4A",
"} 	c #FFDA47",
"| 	c #EEC239",
"1 	c #E1B031",
"2 	c #DFAB2C",
"3 	c #F9CB47",
"4 	c #F7CF5F",
"5 	c #FFF3A4",
"6 	c #DBC56B",
"7 	c #E0C145",
"8 	c #FFE556",
"9 	c #FCDE51",
"0 	c #FFDE4E",
"a 	c #C0AB3B",
"b 	c #FFD947",
"c 	c #E9C73F",
"d 	c #E5C13B",
"e 	c #FECF3D",
"f 	c #E8BE36",
"g 	c #EDBC34",
"h 	c #FEC736",
"i 	c #FFCA36",
"j 	c #E6AC2B",
"k 	c #DFAC39",
"l 	c #FDDD7D",
"m 	c #FADA7D",
"n 	c #F5E997",
"o 	c #D6B547",
"p 	c #FFDF4F",
"q 	c #FDDB4C",
"r 	c #FDD748",
"s 	c #FDD645",
"t 	c #FED342",
"u 	c #F4CD3E",
"v 	c #FDCD3B",
"w 	c #F9C738",
"x 	c #F2C436",
"y 	c #FFC735",
"z 	c #E2B530",
"A 	c #E2BC31",
"B 	c #FCC132",
"C 	c #E5B12D",
"D 	c #F5BC2F",
"E 	c #FABD2F",
"F 	c #D9A135",
"G 	c #F5E2A4",
"H 	c #EECF82",
"I 	c #F9D979",
"J 	c #F1E08A",
"K 	c #E0B93E",
"L 	c #FFD948",
"M 	c #E7C53F",
"N 	c #ECC53D",
"O 	c #FDCF3D",
"P 	c #FDCC3A",
"Q 	c #FDCA38",
"R 	c #FDC632",
"S 	c #FDC22E",
"T 	c #FCC02C",
"U 	c #FBBF2C",
"V 	c #FABD2C",
"W 	c #FABD2E",
"X 	c #F9BD30",
"Y 	c #F8BA2F",
"Z 	c #DAA92A",
"` 	c #E5AF2C",
" .	c #F3B22C",
"..	c #F5B32D",
"+.	c #DC9D2B",
"@.	c #F2E2B0",
"#.	c #EBCC7F",
"$.	c #F5E284",
"%.	c #E1B537",
"&.	c #FED23F",
"*.	c #FDCE3C",
"=.	c #F7C637",
"-.	c #F1C436",
";.	c #FDC635",
">.	c #FCC22F",
",.	c #FCD666",
"'.	c #FCE689",
").	c #FCEF9C",
"!.	c #FDF19B",
"~.	c #FDED8E",
"{.	c #FCE377",
"].	c #FBD45B",
"^.	c #F7C343",
"/.	c #F2B12D",
"(.	c #F3B02B",
"_.	c #F1AD29",
":.	c #E3A427",
"<.	c #D79A25",
"[.	c #ECA728",
"}.	c #D79527",
"|.	c #F6DE97",
"1.	c #FEE782",
"2.	c #D8A835",
"3.	c #FFCC39",
"4.	c #FDC736",
"5.	c #FDC534",
"6.	c #FCC334",
"7.	c #FBC02E",
"8.	c #FBD262",
"9.	c #FCF3A7",
"0.	c #FDF197",
"a.	c #FDED8A",
"b.	c #FDE87D",
"c.	c #FDE36E",
"d.	c #FDDE60",
"e.	c #FDD753",
"f.	c #FDD247",
"g.	c #FDCC3C",
"h.	c #FBC93C",
"i.	c #F0B12E",
"j.	c #EAA327",
"k.	c #DF9B25",
"l.	c #E3A227",
"m.	c #E59E24",
"n.	c #E59D24",
"o.	c #CE8F2B",
"p.	c #FBDA71",
"q.	c #F9DA73",
"r.	c #DDB141",
"s.	c #EFB931",
"t.	c #FCC232",
"u.	c #FABF30",
"v.	c #F9BB2B",
"w.	c #FADF85",
"x.	c #FDF29B",
"y.	c #FDEC89",
"z.	c #FDE87A",
"A.	c #FDE26C",
"B.	c #FDDD5E",
"C.	c #FDD750",
"D.	c #FDD145",
"E.	c #FDC837",
"F.	c #FBC535",
"G.	c #FAC233",
"H.	c #F8C030",
"I.	c #EEAF2B",
"J.	c #E29A24",
"K.	c #E19823",
"L.	c #E09723",
"M.	c #DF9523",
"N.	c #E09422",
"O.	c #D99F2B",
"P.	c #EDC55A",
"Q.	c #FAD760",
"R.	c #E1A628",
"S.	c #EDB42E",
"T.	c #D9AC2B",
"U.	c #F3B82F",
"V.	c #F6B629",
"W.	c #F9DC81",
"X.	c #FDEC87",
"Y.	c #FDE779",
"Z.	c #FDE26A",
"`.	c #FDDC5C",
" +	c #FDD74F",
".+	c #FDD044",
"++	c #FDCB3A",
"@+	c #FCC837",
"#+	c #FAC132",
"$+	c #F8BE2F",
"%+	c #F6BB2D",
"&+	c #F4B72C",
"*+	c #F1B32A",
"=+	c #E8A426",
"-+	c #DD9222",
";+	c #DD9022",
">+	c #DC9021",
",+	c #DB8E21",
"'+	c #CB801C",
")+	c #F4BE3B",
"!+	c #F7D367",
"~+	c #DDA82F",
"{+	c #FBBD30",
"]+	c #F7B82E",
"^+	c #EBAF2B",
"/+	c #F3B12C",
"(+	c #F5C65B",
"_+	c #FDE97D",
":+	c #FDE168",
"<+	c #FDDB5A",
"[+	c #FDD64D",
"}+	c #FDD042",
"|+	c #FDCA3A",
"1+	c #FCC736",
"2+	c #FBC434",
"3+	c #F5B92D",
"4+	c #F3B62B",
"5+	c #F1B22A",
"6+	c #EEAE28",
"7+	c #EDAB27",
"8+	c #EBA726",
"9+	c #DD9321",
"0+	c #D98C20",
"a+	c #CC851E",
"b+	c #C5801D",
"c+	c #DA8C20",
"d+	c #D48F1A",
"e+	c #E4B854",
"f+	c #FDD253",
"g+	c #DA9C25",
"h+	c #E2A428",
"i+	c #F0AD29",
"j+	c #EEA825",
"k+	c #FCE582",
"l+	c #FDDA59",
"m+	c #FDD44C",
"n+	c #FDCF41",
"o+	c #FDCA39",
"p+	c #FCC737",
"q+	c #F9C031",
"r+	c #FABF2F",
"s+	c #D3A127",
"t+	c #E0AA29",
"u+	c #CE9D25",
"v+	c #EFAF28",
"w+	c #ECAA27",
"x+	c #EAA625",
"y+	c #E7A224",
"z+	c #E49E23",
"A+	c #E09922",
"B+	c #D6891F",
"C+	c #CF851F",
"D+	c #D98D21",
"E+	c #D78A1F",
"F+	c #CA801A",
"G+	c #E5AC3E",
"H+	c #F5C646",
"I+	c #DF9C24",
"J+	c #DE9F26",
"K+	c #DCA127",
"L+	c #EBA527",
"M+	c #EFBF5A",
"N+	c #FDD447",
"O+	c #FDCE3F",
"P+	c #FDC939",
"Q+	c #FCC636",
"R+	c #FBC333",
"S+	c #F7BD2E",
"T+	c #F4B92D",
"U+	c #E4AB29",
"V+	c #C59A24",
"W+	c #DEA426",
"X+	c #D19D23",
"Y+	c #D89922",
"Z+	c #E8A225",
"`+	c #E49E24",
" @	c #E29B23",
".@	c #DF9821",
"+@	c #DE9521",
"@@	c #D4891F",
"#@	c #D98C1F",
"$@	c #D68A1F",
"%@	c #D78C1F",
"&@	c #D58A1E",
"*@	c #DA972C",
"=@	c #DFAC3A",
"-@	c #ECA527",
";@	c #E8A126",
">@	c #E79F25",
",@	c #E39B20",
"'@	c #F4CA5F",
")@	c #FCC937",
"!@	c #FAC333",
"~@	c #F6BC2E",
"{@	c #F2B52B",
"]@	c #F3B32A",
"^@	c #D6A225",
"/@	c #C28C20",
"(@	c #D9A024",
"_@	c #D49522",
":@	c #DE9922",
"<@	c #D89321",
"[@	c #E09821",
"}@	c #DD9422",
"|@	c #DC9121",
"1@	c #D2871E",
"2@	c #DF9320",
"3@	c #C2821C",
"4@	c #D8921F",
"5@	c #E3991F",
"6@	c #CB7F17",
"7@	c #F2CF6F",
"8@	c #DBAA4A",
"9@	c #E89E24",
"0@	c #D69221",
"a@	c #D28E21",
"b@	c #DE911E",
"c@	c #FACF5C",
"d@	c #F9BF30",
"e@	c #F4B82C",
"f@	c #F2B42B",
"g@	c #EFB029",
"h@	c #EDAC28",
"i@	c #D49823",
"j@	c #EEAE27",
"k@	c #C58D20",
"l@	c #C6891E",
"m@	c #CE9121",
"n@	c #DD9521",
"o@	c #D28C20",
"p@	c #D88E21",
"q@	c #DB8E20",
"r@	c #D88B1F",
"s@	c #CD821D",
"t@	c #E49B20",
"u@	c #E49D1F",
"v@	c #E8A120",
"w@	c #CE8419",
"x@	c #D5A64E",
"y@	c #F4D98F",
"z@	c #D9AA59",
"A@	c #E19723",
"B@	c #D48C20",
"C@	c #DF9422",
"D@	c #D98A1A",
"E@	c #FBD15B",
"F@	c #F5BB2D",
"G@	c #F0B029",
"H@	c #EBA826",
"I@	c #E7A325",
"J@	c #D29923",
"K@	c #D79321",
"L@	c #CD8E1F",
"M@	c #DC9A23",
"N@	c #CD881F",
"O@	c #CE871F",
"P@	c #DB8F21",
"Q@	c #CA831E",
"R@	c #D78A20",
"S@	c #D88B20",
"T@	c #DB961D",
"U@	c #E9A321",
"V@	c #EBA622",
"W@	c #EEAA23",
"X@	c #D7901D",
"Y@	c #DAAC55",
"Z@	c #F3DC9F",
"`@	c #D7AC66",
" #	c #DD9121",
".#	c #DA8D21",
"+#	c #D68618",
"@#	c #F7CA56",
"##	c #C59322",
"$#	c #DC9D24",
"%#	c #E8A324",
"&#	c #E8A224",
"*#	c #C58B1F",
"=#	c #E9A124",
"-#	c #B37E1C",
";#	c #D28D20",
">#	c #CA841E",
",#	c #C0801E",
"'#	c #DB8D20",
")#	c #CB821D",
"!#	c #C9811E",
"~#	c #E09522",
"{#	c #DF9D1E",
"]#	c #EFAC23",
"^#	c #F1AF24",
"/#	c #F5B325",
"(#	c #E19F22",
"_#	c #DFB459",
":#	c #EED491",
"<#	c #D8B270",
"[#	c #DA8D1F",
"}#	c #D5861C",
"|#	c #F0BC4C",
"1#	c #D39722",
"2#	c #BE8E20",
"3#	c #C38A1F",
"4#	c #E59D23",
"5#	c #C7891E",
"6#	c #CC8D20",
"7#	c #C0821E",
"8#	c #C4801D",
"9#	c #D08820",
"0#	c #C1801D",
"a#	c #C9821D",
"b#	c #D98B20",
"c#	c #D2871F",
"d#	c #D0861F",
"e#	c #D98E21",
"f#	c #D58F21",
"g#	c #DA9622",
"h#	c #F2B225",
"i#	c #EAAF26",
"j#	c #E6AD27",
"k#	c #FBBE2D",
"l#	c #E9AC28",
"m#	c #DBB556",
"n#	c #DFBD76",
"o#	c #D98A1E",
"p#	c #D8891C",
"q#	c #E8AF45",
"r#	c #C38B1F",
"s#	c #AA7C1C",
"t#	c #BF841D",
"u#	c #C3851E",
"v#	c #BD811E",
"w#	c #C0801D",
"x#	c #BE7D1D",
"y#	c #B6771B",
"z#	c #D68C20",
"A#	c #DD8D20",
"B#	c #DD8F21",
"C#	c #DF9322",
"D#	c #D89221",
"E#	c #E39D24",
"F#	c #E3A126",
"G#	c #E9A929",
"H#	c #DEA025",
"I#	c #FCBF2E",
"J#	c #EBB52D",
"K#	c #D8B22E",
"L#	c #FFC633",
"M#	c #EFB72B",
"N#	c #F4D77D",
"O#	c #CE8018",
"P#	c #C7861E",
"Q#	c #DD9020",
"R#	c #E5A841",
"S#	c #CD8C1B",
"T#	c #C3871E",
"U#	c #D18F20",
"V#	c #C5841E",
"W#	c #CD871F",
"X#	c #D0881F",
"Y#	c #CE861E",
"Z#	c #CC841E",
"`#	c #C7801E",
" $	c #D2891F",
".$	c #CD861F",
"+$	c #D18B20",
"@$	c #D39021",
"#$	c #D59523",
"$$	c #DA9D25",
"%$	c #DDA228",
"&$	c #E0AB2A",
"*$	c #E3B42E",
"=$	c #E1A829",
"-$	c #FEC634",
";$	c #FEC837",
">$	c #FEC93B",
",$	c #F9C841",
"'$	c #F3BF3D",
")$	c #F6D163",
"!$	c #CE881F",
"~$	c #DE941F",
"{$	c #E19520",
"]$	c #E2971F",
"^$	c #E39B21",
"/$	c #E3A238",
"($	c #CA871F",
"_$	c #DE9021",
":$	c #CD851F",
"<$	c #D68A20",
"[$	c #CB861F",
"}$	c #E29923",
"|$	c #E7A025",
"1$	c #ECA828",
"2$	c #F1B02B",
"3$	c #F6B82E",
"4$	c #FABF31",
"5$	c #EDB831",
"6$	c #F4BF34",
"7$	c #EDB938",
"8$	c #E8BD3F",
"9$	c #D6B642",
"0$	c #FFD352",
"a$	c #EEC04A",
"b$	c #E5B345",
"c$	c #EAC35C",
"d$	c #DC9D21",
"e$	c #E69D20",
"f$	c #DE991F",
"g$	c #D6961F",
"h$	c #E8A220",
"i$	c #E7AA38",
"j$	c #DA8C1F",
"k$	c #E49B23",
"l$	c #E7A226",
"m$	c #EDA928",
"n$	c #F2B12C",
"o$	c #F7B92E",
"p$	c #FAC031",
"q$	c #FDC535",
"r$	c #FDCB39",
"s$	c #FFD540",
"t$	c #D8A937",
"u$	c #FFD557",
"v$	c #FFD75E",
"w$	c #F7D667",
"x$	c #FFDD71",
"y$	c #E5AC3A",
"z$	c #D6AA53",
"A$	c #F2B937",
"B$	c #DA961D",
"C$	c #E0A020",
"D$	c #DFA322",
"E$	c #F0AC23",
"F$	c #F2AE21",
"G$	c #DFA035",
"H$	c #D7891E",
"I$	c #DC8F21",
"J$	c #E39B24",
"K$	c #E8A326",
"L$	c #EEAA29",
"M$	c #F2B22C",
"N$	c #F7BA2F",
"O$	c #FDD13F",
"P$	c #FFD845",
"Q$	c #D8B03B",
"R$	c #FBD769",
"S$	c #F3D26E",
"T$	c #F9DA7A",
"U$	c #FDE085",
"V$	c #F4D884",
"W$	c #DD992C",
"X$	c #E3B54F",
"Y$	c #D79219",
"Z$	c #F5B326",
"`$	c #EDAF26",
" %	c #F7BA2A",
".%	c #F9BC2C",
"+%	c #DC9A2C",
"@%	c #E19621",
"#%	c #E39C24",
"$%	c #EAA426",
"%%	c #EEAB29",
"&%	c #F4B42C",
"*%	c #F7BB2F",
"=%	c #FBC232",
"-%	c #FDD546",
";%	c #FFDF4D",
">%	c #D7B341",
",%	c #F3D579",
"'%	c #FFE389",
")%	c #FFE592",
"!%	c #F0DB93",
"~%	c #FFECA6",
"{%	c #DBA144",
"]%	c #CE9E4D",
"^%	c #E3A638",
"/%	c #DC9C21",
"(%	c #F1B62B",
"_%	c #DDB22C",
":%	c #FCC030",
"<%	c #FEC433",
"[%	c #E5AB2E",
"}%	c #E8A526",
"|%	c #F6B62D",
"1%	c #F8BC2F",
"2%	c #FCC233",
"3%	c #FDC836",
"4%	c #FDCC3B",
"5%	c #FDD240",
"6%	c #FDD646",
"7%	c #FFDD4D",
"8%	c #F1D249",
"9%	c #D3B254",
"0%	c #FAE193",
"a%	c #FFE99E",
"b%	c #CCBF8C",
"c%	c #F6E4A7",
"d%	c #FDECB2",
"e%	c #E8CA8A",
"f%	c #D49334",
"g%	c #D68F26",
"h%	c #ECB22D",
"i%	c #FDC636",
"j%	c #F5C138",
"k%	c #D5B439",
"l%	c #FFCF46",
"m%	c #FED14D",
"n%	c #F4C950",
"o%	c #E6B742",
"p%	c #E5B233",
"q%	c #EEBD31",
"r%	c #FFD53F",
"s%	c #FFDA46",
"t%	c #EECA41",
"u%	c #DCBA43",
"v%	c #DABC5F",
"w%	c #E7CD8B",
"x%	c #FFEDAA",
"y%	c #F8E6AA",
"z%	c #FDEDB5",
"A%	c #F6E8B6",
"B%	c #FFF2C1",
"C%	c #F3E3B0",
"D%	c #D6912A",
"E%	c #CEA454",
"F%	c #D48B23",
"G%	c #EEBD41",
"H%	c #F3CB4E",
"I%	c #F2CF57",
"J%	c #FED760",
"K%	c #F1D165",
"L%	c #FFDC72",
"M%	c #FEDE7A",
"N%	c #FFE386",
"O%	c #F5D987",
"P%	c #E3C67F",
"Q%	c #E0C684",
"R%	c #F0D999",
"S%	c #FFEFB0",
"T%	c #FFEEB3",
"U%	c #F4E5AF",
"V%	c #FEF0BD",
"W%	c #EFE4B6",
"X%	c #F6ECC1",
"Y%	c #FDF5C8",
"Z%	c #F3E7B9",
"`%	c #D99B32",
" &	c #C4A059",
".&	c #CEA555",
"+&	c #E2A12E",
"@&	c #E7BC51",
"#&	c #FFE079",
"$&	c #FFE17F",
"%&	c #B9AE6F",
"&&	c #DFCF87",
"*&	c #FDE597",
"=&	c #FDE7A0",
"-&	c #FDE9A6",
";&	c #FDEBAD",
">&	c #FFEEB5",
",&	c #FDEEB9",
"'&	c #FDF0BE",
")&	c #FFF4C4",
"!&	c #CAC6AA",
"~&	c #F9F2C9",
"{&	c #FDF7CD",
"]&	c #FEFBD3",
"^&	c #EAD8A0",
"/&	c #DCA438",
"(&	c #C4A15B",
"_&	c #EFBD43",
":&	c #EABB47",
"<&	c #F3DB91",
"[&	c #FEE9A4",
"}&	c #FEECAC",
"|&	c #FDEBB0",
"1&	c #FDEDB6",
"2&	c #FDEFBC",
"3&	c #FDF1BF",
"4&	c #EEE7BD",
"5&	c #FDF4C8",
"6&	c #FCF6CB",
"7&	c #FCF6CD",
"8&	c #FEFACE",
"9&	c #FEFBD1",
"0&	c #F5F1C6",
"a&	c #E0BB64",
"b&	c #DCAE47",
"c&	c #DFB957",
"d&	c #F2BD39",
"e&	c #E9BB56",
"f&	c #EDD597",
"g&	c #FCF4C9",
"h&	c #FFF7CC",
"i&	c #FEF7CC",
"j&	c #FDF8CF",
"k&	c #FDFAD1",
"l&	c #FEFCD4",
"m&	c #FCFCD5",
"n&	c #ECE0AA",
"o&	c #E2BF6A",
"p&	c #E0B042",
"q&	c #D1AF5D",
"r&	c #D7AD52",
"s&	c #DCA239",
"t&	c #DD982B",
"u&	c #DA9D3E",
"v&	c #DCAB5A",
"w&	c #E0B56A",
"x&	c #E0B96C",
"y&	c #DEB461",
"z&	c #DDAD4D",
"A&	c #DDAA3E",
"B&	c #D7AB48",
"C&	c #D1B05E",
"D&	c #C99C50",
"E&	c #CD9D4C",
"F&	c #CFA150",
"G&	c #CBA458",
"                            . + @ #                             ",
"                    $ % & * = - ; > , ' ) !                     ",
"                ~ { ] ^ / ( _ : < [ } | 1 2 3 4                 ",
"              5 6 7 8 9 0 a b c d e f g h i j k l               ",
"          m n o p q r s t u v w x y z A B C D E F G H           ",
"        I J K L M N O P Q R S T U V W X Y Z `  ...+.@.#.        ",
"        $.%.&.*.=.-.;.>.,.'.).!.~.{.].^./.(._.:.<.[.}.|.        ",
"      1.2.3.4.5.6.7.8.9.0.a.b.c.d.e.f.g.h.i.j.k.l.m.n.o.p.      ",
"    q.r.y s.t.u.v.w.x.y.z.A.B.C.D.g.E.F.G.H.I.J.K.L.M.N.O.P.    ",
"    Q.R.S.T.U.V.W.X.Y.Z.`. +.+++@+F.#+$+%+&+*+=+-+;+>+,+'+)+    ",
"  !+~+{+]+^+/+(+_+:+<+[+}+|+1+2+#+$+3+4+5+6+7+8+9+0+a+b+c+d+e+  ",
"  f+g+/+h+i+j+k+l+m+n+o+p+2+q+r+s+t+u+v+w+x+y+z+A+B+C+D+E+F+G+  ",
"  H+I+J+K+L+M+N+O+P+Q+R+q+S+T+U+V+W+X+Y+Z+`+ @.@+@@@#@$@%@&@*@  ",
"  =@-@;@>@,@'@)@Q+!@q+~@3+{@]@^@/@(@_@:@<@[@}@|@,+1@2@3@4@5@6@  ",
"7@8@9@0@a@b@c@!@d@~@e@f@g@h@i@j@k@l@m@n@o@p@q@0+r@s@5@t@u@v@w@x@",
"y@z@A@B@C@D@E@F@&+f@G@h@H@I@J@K@L@M@N@O@P@Q@E+R@R@S@T@U@V@W@X@Y@",
"Z@`@ #.#0++#@#*+6+##$#%#&#*#=#-#;#>#,#'#)#R@!#0+>+~#{#]#^#/#(#_#",
":#<#[#E+R@}#|#7+1#2#3#4#5#6#7#8#9#0#a#b#c#d#e#f#m.g#h#i#j#k#l#m#",
"  n#o#S@b#p#q#y+r#s#t#u#v#w#x#y#z#A#Q@B#C#D#E#F#G#H#I#J#K#L#M#  ",
"  N#O#a#P#Q#R#S#T#U#V#W#X#Y#Z#`# $.$+$@$#$$$%$&$*$=$-$;$>$,$'$  ",
"  )$!$~${$]$^$/$($_$:$r@E+<$R@[$C#}$|$1$2$3$4$5$6$7$8$9$0$a$b$  ",
"  c$d$e$f$g$h$i$j$r@S@R@S@q@C@k$l$m$n$o$p$q$r$s$t$u$v$w$x$y$z$  ",
"    A$B$C$D$E$F$G$H$S@I$C@J$K$L$M$N$#+;.r$O$P$Q$R$S$T$U$V$W$    ",
"    X$Y$/#Z$`$ %.%+%@%#%$%%%&%*%=%4.P O$-%;%>%,%'%)%!%~%{%]%    ",
"      ^%/%(%_%:%<%-$[%}%|%1%2%3%4%5%6%7%8%9%0%a%b%c%d%e%f%      ",
"        g%h%i%j%k%l%m%n%o%p%q%r%s%t%u%v%w%x%y%z%A%B%C%D%        ",
"        E%F%G%H%I%J%K%L%M%N%O%P%Q%R%S%T%U%V%W%X%Y%Z%`% &        ",
"          .&+&@&#&$&%&&&*&=&-&;&>&,&'&)&!&~&{&]&^&/&(&          ",
"              _&:&<&[&}&|&1&2&3&4&5&6&7&8&9&0&a&b&              ",
"                c&d&e&f&g&h&i&{&j&k&l&m&n&o&p&q&                ",
"                    r&s&t&u&v&w&x&y&z&A&B&C&                    ",
"                            D&E&F&G&                            "};
